<?xml version="1.0" encoding="UTF-8"?>
<svg viewBox="0 0 496.95319 499.99673" xmlns="http://www.w3.org/2000/svg" xmlns:xlink="http://www.w3.org/1999/xlink">
 <defs>
  <linearGradient id="b">
   <stop stop-color="#ffb142" offset="0"/>
   <stop stop-color="#c87600" offset="1"/>
  </linearGradient>
  <linearGradient id="c" x1="609.68" x2="613.42" y1="134.2" y2="146.67" gradientUnits="userSpaceOnUse">
   <stop stop-color="#a9a9a9" offset="0"/>
   <stop stop-color="#9c9c9c" offset=".263"/>
   <stop stop-color="#97989c" offset=".489"/>
   <stop stop-color="#9e9fa1" offset=".778"/>
   <stop stop-color="#acacac" offset="1"/>
  </linearGradient>
  <linearGradient id="a" x2="0" y1="133.85" y2="139.34" gradientUnits="userSpaceOnUse" xlink:href="#b"/>
  <linearGradient id="d" x1="612.23" x2="615.54" gradientUnits="userSpaceOnUse" xlink:href="#b"/>
 </defs>
 <g transform="matrix(3.3727 0 0 3.3727 -1821.2 3.0565)">
  <path d="m611.72 133.26a5.5544 8.9743 0 0 1 -11.109 0 5.5544 8.9743 0 1 1 11.109 0z" fill="url(#a)" stroke="#000" stroke-linecap="round" stroke-linejoin="round" stroke-width="1.9489"/>
  <path d="m598.27 133.26a5.5544 8.9743 0 0 1 -11.109 0 5.5544 8.9743 0 1 1 11.109 0z" fill="url(#a)" stroke="#000" stroke-linecap="round" stroke-linejoin="round" stroke-width="1.9489"/>
  <path d="m604.9 133.26a5.5544 8.9743 0 0 1 -11.109 0 5.5544 8.9743 0 1 1 11.109 0z" fill="url(#a)" stroke="#000" stroke-linecap="round" stroke-linejoin="round" stroke-width="1.9489"/>
  <path d="m641.73 133.26a5.5544 8.9743 0 0 1 -11.109 0 5.5544 8.9743 0 1 1 11.109 0z" fill="url(#a)" stroke="#000" stroke-linecap="round" stroke-linejoin="round" stroke-width="1.9489"/>
  <path d="m628.29 133.26a5.5544 8.9743 0 0 1 -11.109 0 5.5544 8.9743 0 1 1 11.109 0z" fill="url(#a)" stroke="#000" stroke-linecap="round" stroke-linejoin="round" stroke-width="1.9489"/>
  <path d="m634.91 133.26a5.5544 8.9743 0 0 1 -11.109 0 5.5544 8.9743 0 1 1 11.109 0z" fill="url(#a)" stroke="#000" stroke-linecap="round" stroke-linejoin="round" stroke-width="1.9489"/>
  <path d="m592.718,124.2802c-2.2632,0-4.202,2.1946-5.0671,5.3351 7.3946,1.9779 15.5188,3.1315 24.0568,3.2888-.1163-4.7884-2.5503-8.624-5.5422-8.624-1.2867,0-2.4686.7123-3.4106,1.9002-.942-1.1879-2.124-1.9002-3.4106-1.9002-1.2418,0-2.3879.6646-3.3132,1.7784-.9253-1.1138-2.0713-1.7784-3.3131-1.7784zm30.0132,0c-2.9843,0-5.4143,3.8162-5.5422,8.5874 8.5287-.2745 16.6108-1.5527 23.9472-3.642-.9149-2.9295-2.7897-4.9454-4.9575-4.9454-1.2867,0-2.4686.7123-3.4106,1.9002-.942-1.1879-2.124-1.9002-3.4106-1.9002-1.2418,0-2.3879.6646-3.3132,1.7784-.9253-1.1138-2.0713-1.7784-3.3131-1.7784z" fill-opacity=".314"/>
  <path d="m678.24 64.62a64.534 64.534 0 0 1 -129.07 0 64.534 64.534 0 1 1 129.07 0z" fill="#784421" stroke="#000" stroke-linecap="round" stroke-width="1.9489"/>
  <path d="m645.6 96.886c-10.329-1.9191-0.876 8.4314-2.4598 12.174-6.2611-3.0787-3.8755 7.1135-6.7067 9.9448-5.3649-0.2869-6.2023 5.123-9.9449 6.7068-4.5221-2.5089-7.8565 2.4598-12.174 2.4598s-6.8723-4.7738-12.174-2.4598c-3.7425-1.5838-4.5799-6.7988-9.9448-6.7068-2.8314-2.8313-2.3946-13.608-6.7068-9.9448-1.5838-3.7425 5.7256-14.873-2.4598-12.174 0-4.3174 8.6716-12.329 2.4598-12.174 1.5838-3.7425 9.5273-6.5288 6.7068-9.9448 5.6626-5.6626 13.484-9.1666 22.119-9.1666s16.456 3.504 22.119 9.1666c-4.1848 2.0518 5.1229 6.2023 6.7067 9.9448-6.9913-0.3502 2.4598 7.8565 2.4598 12.174z" fill="#fff" stroke="#000" stroke-linecap="round" stroke-linejoin="round" stroke-width="1.9489"/>
  <path d="m670.72 34.387c0.772 3.9884 1.1815 8.1018 1.1815 12.315 0 1.4538-0.0513 2.8942-0.1462 4.3241-1.4315-0.0713-2.9539 7e-3 -4.5799 0.2436-13.726 2.9228-7.8632 20.138-11.438 38.15-11.827 13.381-29.12 21.816-48.37 21.816-11.839 0-22.932-3.199-32.474-8.7701-9.2297-21.61 3.148-45.084-13.119-49.137-17.973-3.2451-24.934 13.43-13.314 38.418 6.4162 13.796 17.042 20.573 24.861 23.204 11.056 8.8872 25.099 14.203 40.379 14.203 17.91 0 34.128-7.3042 45.824-19.099 6.8031-3.3979 14.368-9.5866 19.623-19.94 9.8273-19.361 7.9456-33.942-2.1316-37.979-1.2355-6.2895-3.3778-12.256-6.2974-17.747z" fill-opacity=".314" fill-rule="evenodd"/>
  <path d="m561.73 50.19c18.753 6.7432-5.5207 36.695 14.741 62.83 3.7452 4.8307-22.556 0.8149-31.854-25.954-9.0423-26.032-0.4414-41.917 17.113-36.876z" fill="#784421" fill-rule="evenodd" stroke="#000" stroke-width="1.9489"/>
  <path d="m665.58 50.19c-18.753 6.7432 5.5207 36.695-14.741 62.83-3.7452 4.8307 22.556 0.8149 31.854-25.954 9.0423-26.032 0.4413-41.917-17.113-36.876z" fill="#784421" fill-rule="evenodd" stroke="#000" stroke-width="1.9487"/>
  <path d="m658.69 46.664c5.2187-1.7965 10.61 2.956 11.641 5.5271-5.2668-1.3456-7.6864-1.7251-9.0501-0.5382 0.5873 1.3141 6.7855 2.6279 8.7067 11.254-4.8445-3.3586-8.6935-7.2404-10.241-5.6453 1.1232 1.9621 2.4165 5.6508 1.5449 9.3083-2.7836-3.6735-5.6279-7.5534-8.2406-7.6584" fill="#784421" fill-rule="evenodd" stroke="#000" stroke-linecap="round" stroke-linejoin="round" stroke-width="1.9489"/>
  <path d="m595.79 14.806c-12.175 0-22.063 11.433-22.063 25.52s9.8883 25.52 22.063 25.52c7.1547 0 13.504-3.9527 17.534-10.068 4.0303 6.1196 10.393 10.068 17.551 10.068 12.175 0 22.063-11.433 22.063-25.52s-9.8883-25.52-22.063-25.52c-7.1569 0-13.52 3.9495-17.551 10.068-4.0305-6.1138-10.38-10.068-17.534-10.068z" fill="#fff" stroke="#000" stroke-linecap="round" stroke-width="1.9489"/>
  <path d="m614 58.036c-3.6202 0-7.5554 4.0254-7.398 6.5677s6.4536 13.135 7.8703 13.135 6.9257-10.381 6.7684-13.347-4.8795-6.5677-7.2406-6.3559z" fill-opacity=".314" fill-rule="evenodd"/>
  <path d="m613.17 53.901c-3.6203 0-7.5554 3.6274-7.398 5.9184s6.4536 11.837 7.8702 11.837 6.9258-9.3548 6.7684-12.028-4.8796-5.9184-7.2406-5.7275z" fill="url(#d)" fill-rule="evenodd" stroke="#000" stroke-width="1.9489"/>
  <path d="m568.51 46.664c-5.2187-1.7965-10.61 2.956-11.641 5.5271 5.2668-1.3456 7.6864-1.7251 9.0501-0.5382-0.5873 1.3141-6.7854 2.6279-8.7067 11.254 4.8445-3.3586 8.6935-7.2404 10.24-5.6453-1.1232 1.9621-2.4165 5.6508-1.5449 9.3083 2.7836-3.6735 5.628-7.5534 8.2406-7.6584" fill="#784421" fill-rule="evenodd" stroke="#000" stroke-linecap="round" stroke-linejoin="round" stroke-width="1.9489"/>
  <path d="m618.72 19.1c5.1747-12.535 13.902-14.232 13.902-14.232s-4.8541 6.5387-0.4577 4.7198c6.8077-2.8165 28.453 6.0098 28.453 6.0098s-28.678-6.6754-41.897 3.5026z" fill="#fff" fill-rule="evenodd" stroke="#000" stroke-linejoin="round" stroke-width="1.9489"/>
  <path d="m606.86 17.931c-5.1747-12.535-13.902-14.232-13.902-14.232s4.8541 6.5387 0.4576 4.7198c-6.8076-2.8165-28.453 6.0098-28.453 6.0098s28.678-6.6754 41.897 3.5026z" fill="#fff" fill-rule="evenodd" stroke="#000" stroke-linejoin="round" stroke-width="1.9489"/>
  <g transform="matrix(.38978 0 0 .38978 467.48 -131.83)">
   <path d="m370.6 457.69a16.387 16.387 0 1 1 -32.774 0 16.387 16.387 0 1 1 32.774 0z" stroke="#000" stroke-linecap="round" stroke-width="5"/>
   <path d="m352.54 451.95a4.25 4.25 0 0 1 -8.5 0 4.25 4.25 0 1 1 8.5 0z" fill="#fff"/>
  </g>
  <g transform="matrix(.38978 0 0 .38978 467.48 -131.83)">
   <path d="m404.65 443.96a16.387 16.387 0 1 1 -17.886 27.464 16.387 16.387 0 1 1 17.886 -27.464z" stroke="#000" stroke-linecap="round" stroke-width="5"/>
   <path d="m394.04 451.95a4.25 4.25 0 0 1 -8.5 0 4.25 4.25 0 1 1 8.5 0z" fill="#fff"/>
  </g>
  <path d="m671.72 49.259-0.4873 0.0122c6.3192 5.0923 8.9936 16.876 5.7615 33.265-4.2966 21.787-20.883 31.186-26.396 31.682 1.79 2.5439 23.765-3.1673 32.096-27.151 7.912-22.778 2.3078-37.789-10.975-37.809z" fill-opacity=".314" fill-rule="evenodd"/>
  <path d="m541.58 61.806c-1.3454 6.4337-0.5061 15.074 3.033 25.263 9.2982 26.769 35.598 30.788 31.852 25.957-1.6016-2.0658-2.9313-4.1607-4.0196-6.2608-7.3869-1.7702-21.067-9.5014-27.248-27.297-2.2917-6.5977-3.4511-12.543-3.6177-17.662zm27.784 2.4727c-0.3441 3.3272-0.7235 6.8648-0.8892 10.573 0.3872-3.8162 0.8105-7.3829 0.8892-10.573z" fill-opacity=".314" fill-rule="evenodd"/>
  <path d="m562.92 140v2.3659c0 2.2219 1.8223 4.0116 4.0926 4.0116l7.2331 8e-5v-1.1313h78.735v1.1313h6.8374c2.2702 0 4.0987-1.7897 4.0987-4.0117v-2.3659h-101z" fill="url(#c)" stroke="#000" stroke-width="1.9487"/>
  <path d="m562.66 75.159h102.24c2.5011 0 4.5146 1.7714 4.5146 3.9717l-3.3438 60.088c0 2.2003-1.6582 3.9718-4.1592 3.9718h-95.124c-2.5011 0-5.3687-1.7715-5.3687-3.9718l-3.2726-60.088c0-2.2003 2.0135-3.9717 4.5146-3.9717z" fill="#999" stroke="#000" stroke-width="1.9487"/>
  <g transform="translate(-.4081,.688)" fill="#fff">
   <path d="m616.5679,100.868c-1.6979.1421-2.6271,1.1441-2.7207,2.8074-.0319.2411.0529.1695.1968.1577 1.8971-.3634 2.7739-1.3948 2.7467-2.83-.008-.1669-.0404-.1458-.2229-.135z"/>
   <g transform="matrix(.30131 0 0 .25109 420.65 -24.695)">
    <path d="m644.5994,515.9843c6.6465-2.7664 8.4769,11.0201 10.3737,15.537 .4276,1.0853.4953,1.5146-.031,2.1544-8.6365,10.7108.4174,15.7418 5.2981,16.5639 1.2156.2265 1.3109.8645 1.0276,1.7981-.1121.4608-.3781.8481-.6155,1.2512-2.717,4.4892-6.4132,8.3035-12.1299,7.147-1.5348-.5505-2.9122-1.2534-4.5347-1.6044-1.6707-.2593-3.521-.096-4.9524.4186-1.0096.3978-1.9211.9011-2.9658,1.2349-2.8678.8024-5.5041-.1732-7.2158-1.3409-1.2107-.899-1.8216-1.7977-2.4748-2.8966-2.9469-4.073-3.9701-9.4689-2.4012-13.6815 .4463-1.0461.8196-2.1106 1.3371-3.0915 3.9256-7.44 7.1943-14.2437 10.1555-21.4836 .647-1.6471 2.1307-2.0459 3.6677-2.0514 1.8075-.0679 2.8668,1.7804 5.4612.0446v5e-005 3e-005 5e-005h-2e-005z" fill="#fff"/>
   </g>
  </g>
 </g>
</svg>
